<?xml version="1.0" encoding="utf-8"?>
<!-- Generator: Adobe Illustrator 22.0.0, SVG Export Plug-In . SVG Version: 6.00 Build 0)  -->
<svg version="1.0" id="Layer_1" xmlns="http://www.w3.org/2000/svg" xmlns:xlink="http://www.w3.org/1999/xlink" x="0px" y="0px"
	 viewBox="0 0 4000 3000" style="enable-background:new 0 0 4000 3000;" xml:space="preserve">
<style type="text/css">
	.st0{fill:#414042;}
	.st1{fill:#603913;}
</style>
<path class="st0" d="M1174.4,2979.9c0.9-0.5,1.8-0.9,2.7-1.2c0-0.2,0-0.2,0-0.3s0-0.2,0-0.3L1174.4,2979.9z"/>
<g>
	<path class="st1" d="M1308.3,853.5c276.6-371.1,239.1-687.5,202.7-823.4c-0.4,0-0.8-0.2-1.3-0.2C1192.4-31.8,864.1,282.5,776.6,732
		c-77,395.8,58.3,764.4,308.5,889C1051.7,1464.9,1055,1193.5,1308.3,853.5z"/>
	<path class="st1" d="M1609.4,62.9c16.4,86.5,25.5,207.8-2.5,352c-28.2,145-93.9,313.3-227.2,491.8
		c-270.2,362.7-232.1,632.6-193.4,749.6c2.1,0.4,4.2,1.1,6.2,1.4c317.3,61.8,645.6-252.5,733.1-702
		C2003.5,555.7,1864.5,183.6,1609.4,62.9z"/>
</g>
<g>
	<path class="st1" d="M2826,1106.2c242.4,394.3,550.2,476.5,689.9,493c0.2-0.4,0.5-0.7,0.7-1.1c174.8-271.9,4.3-693.2-380.9-940.9
		c-339.2-218-731.7-228.8-940.1-42.4C2353,641.5,2603.9,745,2826,1106.2z"/>
	<path class="st1" d="M3449.1,1678.5c-86.5-16.7-202.5-53.2-326.1-132.5c-124.2-79.9-256.3-203.2-372.8-393
		c-236.9-385.2-501.8-449.7-624.8-457.1c-1.2,1.8-2.5,3.5-3.6,5.3c-174.8,271.9-4.4,693.2,380.9,940.9
		C2845.4,1862.2,3242.5,1870.8,3449.1,1678.5z"/>
</g>
<g>
	<path class="st1" d="M1885.2,2351.5c410.9,213.1,717,125.1,845.3,67.2c-0.1-0.4,0.1-0.9,0-1.3c9.8-323.1-353.3-596.4-811.1-610.3
		c-403.1-12.2-745,180.8-827.6,447.8C1240.4,2196.8,1508.8,2156.3,1885.2,2351.5z"/>
	<path class="st1" d="M2714,2521.1c-82.7,30.2-201,58.7-347.7,54.3c-147.6-4.5-324.3-42.2-522-144.9c-401.5-208.2-661.8-127-771-70
		c-0.1,2.1-0.4,4.3-0.4,6.4c-9.8,323.1,353.3,596.4,811,610.3C2291.2,2989.6,2636,2792.4,2714,2521.1z"/>
</g>
</svg>
